<svg width="550" height="288" viewBox="0 0 550 288" fill="none" xmlns="http://www.w3.org/2000/svg">
<path d="M539.149 85.6687C532.009 68.5417 521.34 53.1112 507.837 40.3825C494.088 27.4168 477.893 17.3209 460.197 10.6844C440.859 3.47402 420.361 -0.124349 399.724 0.0682863C378.513 -0.565877 357.403 3.22276 337.737 11.193C318.07 19.1633 300.279 31.1405 285.495 46.3624L342.072 135.39C343.039 120.936 349.573 107.421 360.299 97.6847C371.026 87.9487 385.109 82.7504 399.589 83.1827C401.336 83.1827 403.016 83.1827 404.763 83.1827C412.162 83.6447 419.398 85.5598 426.057 88.8187C432.716 92.0776 438.668 96.6163 443.572 102.176C448.477 107.735 452.238 114.206 454.641 121.219C457.044 128.233 458.041 135.65 457.577 143.049C457.577 144.796 457.577 146.476 457.577 148.223C457.368 155.627 455.702 162.917 452.674 169.677C449.647 176.437 445.316 182.533 439.931 187.619C434.546 192.705 428.211 196.679 421.289 199.315C414.367 201.951 406.993 203.198 399.589 202.983C389.773 203.31 380.046 201.033 371.395 196.383C362.745 191.734 355.479 184.877 350.337 176.51L282.203 69.7446C280.523 66.8555 278.709 64.0335 276.827 61.2786L275.416 59.1286C270.579 52.3983 265.111 46.1438 259.088 40.4497C245.314 27.4836 229.096 17.3882 211.381 10.7515C172.313 -3.43343 129.502 -3.43343 90.4336 10.7515C72.7185 17.3882 56.5012 27.4836 42.7265 40.4497C29.3314 53.2155 18.7172 68.6101 11.5489 85.6687C-3.32538 122.5 -3.32538 163.666 11.5489 200.497C18.7135 217.594 29.3534 233.016 42.7937 245.783C56.5647 258.77 72.7817 268.889 90.5008 275.549C109.842 282.762 130.332 286.405 150.975 286.299C172.382 286.889 193.674 282.971 213.469 274.799C233.264 266.626 251.119 254.383 265.875 238.863L208.29 150.507C207.524 165.099 201.062 178.807 190.293 188.683C179.524 198.559 165.309 203.814 150.706 203.319C148.983 203.42 147.255 203.42 145.532 203.319C138.135 202.857 130.903 200.942 124.247 197.682C117.592 194.422 111.644 189.882 106.745 184.322C101.846 178.761 98.0916 172.29 95.6962 165.277C93.3008 158.264 92.3116 150.848 92.7853 143.452C92.7853 141.705 92.7853 139.958 92.7853 138.279C93.2246 123.314 99.5849 109.135 110.47 98.8553C121.355 88.5757 135.874 83.0356 150.84 83.4514C160.693 83.1798 170.441 85.5238 179.093 90.2449C187.744 94.9659 194.99 101.895 200.093 110.328L262.314 206.477C269.347 221.598 279.147 235.271 291.207 246.791C304.964 259.762 321.156 269.879 338.847 276.556C358.192 283.749 378.682 287.369 399.32 287.24C486.671 287.24 549.967 226.768 549.967 144.124C550.388 124.105 546.706 104.212 539.149 85.6687Z" fill="white"/>
</svg>
